# xmcd
#
# Track frame offsets: 
#        150
#        24666
#        51925
#        69169
#        117084
#        147040
#        168354
#        196263
#        217603
#        236782
#
# Disc length: 3472 seconds
#
# Revision: 0
# Processed by: cddbd v1.4PL0 Copyright (c) Steve Scherf et al.
# Submitted via: ExactAudioCopy v0.95a2
#
DISCID=810d8e0a
DTITLE=Goran Bare and Placenici - 7
DYEAR=2003
DGENRE=Blues
TTITLE0=Da Te Vidim
TTITLE1=Cicin Boogie
TTITLE2=Svaki Put Kad Odes
TTITLE3=Zatvoriti Krug
TTITLE4=Ovako Stvari Stoje
TTITLE5=Sve Vise Uz Tebe Sam Sam
TTITLE6=U Boljem Svijetu
TTITLE7=Za Koga, Za Zivot
TTITLE8=Zbog Tvoje Ljubavi
TTITLE9=Evo Vlak Mi Stize
EXTD=
EXTT0=
EXTT1=
EXTT2=
EXTT3=
EXTT4=
EXTT5=
EXTT6=
EXTT7=
EXTT8=
EXTT9=
PLAYORDER=
